<?xml version="1.0" encoding="UTF-8" standalone="no"?>
<!DOCTYPE svg PUBLIC "-//W3C//DTD SVG 1.1//EN"
 "http://www.w3.org/Graphics/SVG/1.1/DTD/svg11.dtd">
<!-- Generated by graphviz version 2.47.0 (20210316.0004)
 -->
<!-- Title: dependencies Pages: 1 -->
<svg width="2408pt" height="284pt"
 viewBox="0.00 0.00 2408.00 284.00" xmlns="http://www.w3.org/2000/svg" xmlns:xlink="http://www.w3.org/1999/xlink">
<g id="graph0" class="graph" transform="scale(1 1) rotate(0) translate(4 280)">
<title>dependencies</title>
<polygon fill="white" stroke="transparent" points="-4,4 -4,-280 2404,-280 2404,4 -4,4"/>
<text text-anchor="start" x="1179.01" y="-42.4" font-family="sans-serif" font-weight="bold" font-size="14.00">Legend</text>
<polygon fill="#ffffb3" stroke="transparent" points="966,-10 966,-30 986,-30 986,-10 966,-10"/>
<text text-anchor="start" x="989.63" y="-15.4" font-family="sans-serif" font-size="14.00"> &#160;Declarations</text>
<polygon fill="#8dd3c7" stroke="transparent" points="1079,-10 1079,-30 1099,-30 1099,-10 1079,-10"/>
<text text-anchor="start" x="1102.73" y="-15.4" font-family="sans-serif" font-size="14.00"> &#160;Module</text>
<polygon fill="#80b1d3" stroke="transparent" points="1165,-10 1165,-30 1185,-30 1185,-10 1165,-10"/>
<text text-anchor="start" x="1188.78" y="-15.4" font-family="sans-serif" font-size="14.00"> &#160;Bootstrap</text>
<polygon fill="#fdb462" stroke="transparent" points="1262,-10 1262,-30 1282,-30 1282,-10 1262,-10"/>
<text text-anchor="start" x="1285.67" y="-15.4" font-family="sans-serif" font-size="14.00"> &#160;Providers</text>
<polygon fill="#fb8072" stroke="transparent" points="1358,-10 1358,-30 1378,-30 1378,-10 1358,-10"/>
<text text-anchor="start" x="1381.73" y="-15.4" font-family="sans-serif" font-size="14.00"> &#160;Exports</text>
<g id="clust1" class="cluster">
<title>cluster_FormModule</title>
<polygon fill="none" stroke="black" stroke-dasharray="1,5" points="8,-70 8,-268 2392,-268 2392,-70 8,-70"/>
</g>
<g id="clust2" class="cluster">
<title>cluster_FormModule_declarations</title>
<polygon fill="none" stroke="black" points="126,-78 126,-130 2384,-130 2384,-78 126,-78"/>
</g>
<g id="clust17" class="cluster">
<title>cluster_FormModule_imports</title>
<polygon fill="none" stroke="black" points="16,-78 16,-130 118,-130 118,-78 16,-78"/>
</g>
<g id="clust18" class="cluster">
<title>cluster_FormModule_exports</title>
<polygon fill="none" stroke="black" points="159,-208 159,-260 2279,-260 2279,-208 159,-208"/>
</g>
<!-- ButtonComponent -->
<g id="node1" class="node">
<title>ButtonComponent</title>
<polygon fill="#ffffb3" stroke="black" points="2375.95,-122 2256.05,-122 2256.05,-86 2375.95,-86 2375.95,-122"/>
<text text-anchor="middle" x="2316" y="-99.8" font-family="Times,serif" font-size="14.00">ButtonComponent</text>
</g>
<!-- FormModule -->
<g id="node15" class="node">
<title>FormModule</title>
<polygon fill="#8dd3c7" stroke="black" points="1276.88,-187 1273.88,-191 1252.88,-191 1249.88,-187 1187.12,-187 1187.12,-151 1276.88,-151 1276.88,-187"/>
<text text-anchor="middle" x="1232" y="-164.8" font-family="Times,serif" font-size="14.00">FormModule</text>
</g>
<!-- ButtonComponent&#45;&gt;FormModule -->
<g id="edge1" class="edge">
<title>ButtonComponent&#45;&gt;FormModule</title>
<path fill="none" stroke="black" d="M2263.88,-122.11C2263.88,-141.34 2263.88,-169 2263.88,-169 2263.88,-169 1287,-169 1287,-169"/>
<polygon fill="black" stroke="black" points="1287,-165.5 1277,-169 1287,-172.5 1287,-165.5"/>
</g>
<!-- CheckboxComponent -->
<g id="node2" class="node">
<title>CheckboxComponent</title>
<polygon fill="#ffffb3" stroke="black" points="2238.1,-122 2099.9,-122 2099.9,-86 2238.1,-86 2238.1,-122"/>
<text text-anchor="middle" x="2169" y="-99.8" font-family="Times,serif" font-size="14.00">CheckboxComponent</text>
</g>
<!-- CheckboxComponent&#45;&gt;FormModule -->
<g id="edge2" class="edge">
<title>CheckboxComponent&#45;&gt;FormModule</title>
<path fill="none" stroke="black" d="M2115.38,-122.22C2115.38,-140.83 2115.38,-167 2115.38,-167 2115.38,-167 1287.02,-167 1287.02,-167"/>
<polygon fill="black" stroke="black" points="1287.02,-163.5 1277.02,-167 1287.02,-170.5 1287.02,-163.5"/>
</g>
<!-- CheckboxGroupComponent -->
<g id="node3" class="node">
<title>CheckboxGroupComponent</title>
<polygon fill="#ffffb3" stroke="black" points="2081.87,-122 1908.13,-122 1908.13,-86 2081.87,-86 2081.87,-122"/>
<text text-anchor="middle" x="1995" y="-99.8" font-family="Times,serif" font-size="14.00">CheckboxGroupComponent</text>
</g>
<!-- CheckboxGroupComponent&#45;&gt;FormModule -->
<g id="edge3" class="edge">
<title>CheckboxGroupComponent&#45;&gt;FormModule</title>
<path fill="none" stroke="black" d="M1939.88,-122C1939.88,-139.68 1939.88,-164 1939.88,-164 1939.88,-164 1287.09,-164 1287.09,-164"/>
<polygon fill="black" stroke="black" points="1287.09,-160.5 1277.09,-164 1287.09,-167.5 1287.09,-160.5"/>
</g>
<!-- FileInputComponent -->
<g id="node4" class="node">
<title>FileInputComponent</title>
<polygon fill="#ffffb3" stroke="black" points="1890.16,-122 1757.84,-122 1757.84,-86 1890.16,-86 1890.16,-122"/>
<text text-anchor="middle" x="1824" y="-99.8" font-family="Times,serif" font-size="14.00">FileInputComponent</text>
</g>
<!-- FileInputComponent&#45;&gt;FormModule -->
<g id="edge4" class="edge">
<title>FileInputComponent&#45;&gt;FormModule</title>
<path fill="none" stroke="black" d="M1766.88,-122.03C1766.88,-139.06 1766.88,-162 1766.88,-162 1766.88,-162 1287.14,-162 1287.14,-162"/>
<polygon fill="black" stroke="black" points="1287.14,-158.5 1277.14,-162 1287.14,-165.5 1287.14,-158.5"/>
</g>
<!-- FormGroupComponent -->
<g id="node5" class="node">
<title>FormGroupComponent</title>
<polygon fill="#ffffb3" stroke="black" points="1739.93,-122 1592.07,-122 1592.07,-86 1739.93,-86 1739.93,-122"/>
<text text-anchor="middle" x="1666" y="-99.8" font-family="Times,serif" font-size="14.00">FormGroupComponent</text>
</g>
<!-- FormGroupComponent&#45;&gt;FormModule -->
<g id="edge5" class="edge">
<title>FormGroupComponent&#45;&gt;FormModule</title>
<path fill="none" stroke="black" d="M1606.88,-122.01C1606.88,-138.05 1606.88,-159 1606.88,-159 1606.88,-159 1287.22,-159 1287.22,-159"/>
<polygon fill="black" stroke="black" points="1287.22,-155.5 1277.22,-159 1287.22,-162.5 1287.22,-155.5"/>
</g>
<!-- IconButtonComponent -->
<g id="node6" class="node">
<title>IconButtonComponent</title>
<polygon fill="#ffffb3" stroke="black" points="1574.33,-122 1429.67,-122 1429.67,-86 1574.33,-86 1574.33,-122"/>
<text text-anchor="middle" x="1502" y="-99.8" font-family="Times,serif" font-size="14.00">IconButtonComponent</text>
</g>
<!-- IconButtonComponent&#45;&gt;FormModule -->
<g id="edge6" class="edge">
<title>IconButtonComponent&#45;&gt;FormModule</title>
<path fill="none" stroke="black" d="M1441.38,-122.24C1441.38,-137.57 1441.38,-157 1441.38,-157 1441.38,-157 1286.92,-157 1286.92,-157"/>
<polygon fill="black" stroke="black" points="1286.92,-153.5 1276.92,-157 1286.92,-160.5 1286.92,-153.5"/>
</g>
<!-- IconComponent -->
<g id="node7" class="node">
<title>IconComponent</title>
<polygon fill="#ffffb3" stroke="black" points="1412.21,-122 1305.79,-122 1305.79,-86 1412.21,-86 1412.21,-122"/>
<text text-anchor="middle" x="1359" y="-99.8" font-family="Times,serif" font-size="14.00">IconComponent</text>
</g>
<!-- IconComponent&#45;&gt;FormModule -->
<g id="edge7" class="edge">
<title>IconComponent&#45;&gt;FormModule</title>
<path fill="none" stroke="black" d="M1376.7,-122.05C1376.7,-136.37 1376.7,-154 1376.7,-154 1376.7,-154 1286.99,-154 1286.99,-154"/>
<polygon fill="black" stroke="black" points="1286.99,-150.5 1276.99,-154 1286.99,-157.5 1286.99,-150.5"/>
</g>
<!-- InputComponent -->
<g id="node8" class="node">
<title>InputComponent</title>
<polygon fill="#ffffb3" stroke="black" points="1287.38,-122 1176.62,-122 1176.62,-86 1287.38,-86 1287.38,-122"/>
<text text-anchor="middle" x="1232" y="-99.8" font-family="Times,serif" font-size="14.00">InputComponent</text>
</g>
<!-- InputComponent&#45;&gt;FormModule -->
<g id="edge8" class="edge">
<title>InputComponent&#45;&gt;FormModule</title>
<path fill="none" stroke="black" d="M1232,-122.11C1232,-122.11 1232,-140.99 1232,-140.99"/>
<polygon fill="black" stroke="black" points="1228.5,-140.99 1232,-150.99 1235.5,-140.99 1228.5,-140.99"/>
</g>
<!-- RadioButtonComponent -->
<g id="node9" class="node">
<title>RadioButtonComponent</title>
<polygon fill="#ffffb3" stroke="black" points="1158.39,-122 1005.61,-122 1005.61,-86 1158.39,-86 1158.39,-122"/>
<text text-anchor="middle" x="1082" y="-99.8" font-family="Times,serif" font-size="14.00">RadioButtonComponent</text>
</g>
<!-- RadioButtonComponent&#45;&gt;FormModule -->
<g id="edge9" class="edge">
<title>RadioButtonComponent&#45;&gt;FormModule</title>
<path fill="none" stroke="black" d="M1082.69,-122.05C1082.69,-136.37 1082.69,-154 1082.69,-154 1082.69,-154 1176.8,-154 1176.8,-154"/>
<polygon fill="black" stroke="black" points="1176.8,-157.5 1186.8,-154 1176.8,-150.5 1176.8,-157.5"/>
</g>
<!-- RadioButtonGroupComponent -->
<g id="node10" class="node">
<title>RadioButtonGroupComponent</title>
<polygon fill="#ffffb3" stroke="black" points="987.16,-122 798.84,-122 798.84,-86 987.16,-86 987.16,-122"/>
<text text-anchor="middle" x="893" y="-99.8" font-family="Times,serif" font-size="14.00">RadioButtonGroupComponent</text>
</g>
<!-- RadioButtonGroupComponent&#45;&gt;FormModule -->
<g id="edge10" class="edge">
<title>RadioButtonGroupComponent&#45;&gt;FormModule</title>
<path fill="none" stroke="black" d="M929.07,-122.24C929.07,-137.57 929.07,-157 929.07,-157 929.07,-157 1176.97,-157 1176.97,-157"/>
<polygon fill="black" stroke="black" points="1176.97,-160.5 1186.97,-157 1176.97,-153.5 1176.97,-160.5"/>
</g>
<!-- SelectButtonComponent -->
<g id="node11" class="node">
<title>SelectButtonComponent</title>
<polygon fill="#ffffb3" stroke="black" points="780.66,-122 627.34,-122 627.34,-86 780.66,-86 780.66,-122"/>
<text text-anchor="middle" x="704" y="-99.8" font-family="Times,serif" font-size="14.00">SelectButtonComponent</text>
</g>
<!-- SelectButtonComponent&#45;&gt;FormModule -->
<g id="edge11" class="edge">
<title>SelectButtonComponent&#45;&gt;FormModule</title>
<path fill="none" stroke="black" d="M720.87,-122.01C720.87,-138.05 720.87,-159 720.87,-159 720.87,-159 1177.09,-159 1177.09,-159"/>
<polygon fill="black" stroke="black" points="1177.09,-162.5 1187.09,-159 1177.09,-155.5 1177.09,-162.5"/>
</g>
<!-- SelectionOptionsDirective -->
<g id="node12" class="node">
<title>SelectionOptionsDirective</title>
<polygon fill="#ffffb3" stroke="black" points="609.01,-122 444.99,-122 444.99,-86 609.01,-86 609.01,-122"/>
<text text-anchor="middle" x="527" y="-99.8" font-family="Times,serif" font-size="14.00">SelectionOptionsDirective</text>
</g>
<!-- SelectionOptionsDirective&#45;&gt;FormModule -->
<g id="edge12" class="edge">
<title>SelectionOptionsDirective&#45;&gt;FormModule</title>
<path fill="none" stroke="black" d="M547.34,-122.03C547.34,-139.06 547.34,-162 547.34,-162 547.34,-162 1177.08,-162 1177.08,-162"/>
<polygon fill="black" stroke="black" points="1177.08,-165.5 1187.08,-162 1177.08,-158.5 1177.08,-165.5"/>
</g>
<!-- SliderComponent -->
<g id="node13" class="node">
<title>SliderComponent</title>
<polygon fill="#ffffb3" stroke="black" points="426.27,-122 311.73,-122 311.73,-86 426.27,-86 426.27,-122"/>
<text text-anchor="middle" x="369" y="-99.8" font-family="Times,serif" font-size="14.00">SliderComponent</text>
</g>
<!-- SliderComponent&#45;&gt;FormModule -->
<g id="edge13" class="edge">
<title>SliderComponent&#45;&gt;FormModule</title>
<path fill="none" stroke="black" d="M387.62,-122C387.62,-139.68 387.62,-164 387.62,-164 387.62,-164 1176.9,-164 1176.9,-164"/>
<polygon fill="black" stroke="black" points="1176.9,-167.5 1186.9,-164 1176.9,-160.5 1176.9,-167.5"/>
</g>
<!-- ToggleSwitchComponent -->
<g id="node14" class="node">
<title>ToggleSwitchComponent</title>
<polygon fill="#ffffb3" stroke="black" points="293.88,-122 134.12,-122 134.12,-86 293.88,-86 293.88,-122"/>
<text text-anchor="middle" x="214" y="-99.8" font-family="Times,serif" font-size="14.00">ToggleSwitchComponent</text>
</g>
<!-- ToggleSwitchComponent&#45;&gt;FormModule -->
<g id="edge14" class="edge">
<title>ToggleSwitchComponent&#45;&gt;FormModule</title>
<path fill="none" stroke="black" d="M230.62,-122.22C230.62,-140.83 230.62,-167 230.62,-167 230.62,-167 1177.03,-167 1177.03,-167"/>
<polygon fill="black" stroke="black" points="1177.03,-170.5 1187.03,-167 1177.03,-163.5 1177.03,-170.5"/>
</g>
<!-- ButtonComponent  -->
<g id="node17" class="node">
<title>ButtonComponent </title>
<polygon fill="#fb8072" stroke="black" points="2271.45,-252 2148.55,-252 2148.55,-216 2271.45,-216 2271.45,-252"/>
<text text-anchor="middle" x="2210" y="-229.8" font-family="Times,serif" font-size="14.00">ButtonComponent </text>
</g>
<!-- FormModule&#45;&gt;ButtonComponent  -->
<g id="edge16" class="edge">
<title>FormModule&#45;&gt;ButtonComponent </title>
<path fill="none" stroke="black" stroke-dasharray="5,2" d="M1277.08,-172C1467.13,-172 2193.29,-172 2193.29,-172 2193.29,-172 2193.29,-205.73 2193.29,-205.73"/>
<polygon fill="black" stroke="black" points="2189.79,-205.73 2193.29,-215.73 2196.79,-205.73 2189.79,-205.73"/>
</g>
<!-- CheckboxComponent  -->
<g id="node18" class="node">
<title>CheckboxComponent </title>
<polygon fill="#fb8072" stroke="black" points="2130.6,-252 1989.4,-252 1989.4,-216 2130.6,-216 2130.6,-252"/>
<text text-anchor="middle" x="2060" y="-229.8" font-family="Times,serif" font-size="14.00">CheckboxComponent </text>
</g>
<!-- FormModule&#45;&gt;CheckboxComponent  -->
<g id="edge17" class="edge">
<title>FormModule&#45;&gt;CheckboxComponent </title>
<path fill="none" stroke="black" stroke-dasharray="5,2" d="M1276.93,-175C1446.15,-175 2035.57,-175 2035.57,-175 2035.57,-175 2035.57,-205.98 2035.57,-205.98"/>
<polygon fill="black" stroke="black" points="2032.07,-205.98 2035.57,-215.98 2039.07,-205.98 2032.07,-205.98"/>
</g>
<!-- CheckboxGroupComponent  -->
<g id="node19" class="node">
<title>CheckboxGroupComponent </title>
<polygon fill="#fb8072" stroke="black" points="1971.87,-252 1794.13,-252 1794.13,-216 1971.87,-216 1971.87,-252"/>
<text text-anchor="middle" x="1883" y="-229.8" font-family="Times,serif" font-size="14.00">CheckboxGroupComponent </text>
</g>
<!-- FormModule&#45;&gt;CheckboxGroupComponent  -->
<g id="edge18" class="edge">
<title>FormModule&#45;&gt;CheckboxGroupComponent </title>
<path fill="none" stroke="black" stroke-dasharray="5,2" d="M1277.37,-177C1418.82,-177 1842.32,-177 1842.32,-177 1842.32,-177 1842.32,-205.96 1842.32,-205.96"/>
<polygon fill="black" stroke="black" points="1838.82,-205.96 1842.32,-215.96 1845.82,-205.96 1838.82,-205.96"/>
</g>
<!-- FileInputComponent  -->
<g id="node20" class="node">
<title>FileInputComponent </title>
<polygon fill="#fb8072" stroke="black" points="1776.16,-252 1639.84,-252 1639.84,-216 1776.16,-216 1776.16,-252"/>
<text text-anchor="middle" x="1708" y="-229.8" font-family="Times,serif" font-size="14.00">FileInputComponent </text>
</g>
<!-- FormModule&#45;&gt;FileInputComponent  -->
<g id="edge19" class="edge">
<title>FormModule&#45;&gt;FileInputComponent </title>
<path fill="none" stroke="black" stroke-dasharray="5,2" d="M1277.15,-180C1392.65,-180 1689.82,-180 1689.82,-180 1689.82,-180 1689.82,-205.72 1689.82,-205.72"/>
<polygon fill="black" stroke="black" points="1686.32,-205.72 1689.82,-215.72 1693.32,-205.72 1686.32,-205.72"/>
</g>
<!-- FormGroupComponent  -->
<g id="node21" class="node">
<title>FormGroupComponent </title>
<polygon fill="#fb8072" stroke="black" points="1621.43,-252 1470.57,-252 1470.57,-216 1621.43,-216 1621.43,-252"/>
<text text-anchor="middle" x="1546" y="-229.8" font-family="Times,serif" font-size="14.00">FormGroupComponent </text>
</g>
<!-- FormModule&#45;&gt;FormGroupComponent  -->
<g id="edge20" class="edge">
<title>FormModule&#45;&gt;FormGroupComponent </title>
<path fill="none" stroke="black" stroke-dasharray="5,2" d="M1277.05,-182C1358.6,-182 1522.35,-182 1522.35,-182 1522.35,-182 1522.35,-205.81 1522.35,-205.81"/>
<polygon fill="black" stroke="black" points="1518.85,-205.81 1522.35,-215.81 1525.85,-205.81 1518.85,-205.81"/>
</g>
<!-- IconButtonComponent  -->
<g id="node22" class="node">
<title>IconButtonComponent </title>
<polygon fill="#fb8072" stroke="black" points="1452.83,-252 1305.17,-252 1305.17,-216 1452.83,-216 1452.83,-252"/>
<text text-anchor="middle" x="1379" y="-229.8" font-family="Times,serif" font-size="14.00">IconButtonComponent </text>
</g>
<!-- FormModule&#45;&gt;IconButtonComponent  -->
<g id="edge21" class="edge">
<title>FormModule&#45;&gt;IconButtonComponent </title>
<path fill="none" stroke="black" stroke-dasharray="5,2" d="M1277.09,-185C1307.19,-185 1341.3,-185 1341.3,-185 1341.3,-185 1341.3,-205.75 1341.3,-205.75"/>
<polygon fill="black" stroke="black" points="1337.8,-205.75 1341.3,-215.75 1344.8,-205.75 1337.8,-205.75"/>
</g>
<!-- IconComponent  -->
<g id="node23" class="node">
<title>IconComponent </title>
<polygon fill="#fb8072" stroke="black" points="1286.71,-252 1177.29,-252 1177.29,-216 1286.71,-216 1286.71,-252"/>
<text text-anchor="middle" x="1232" y="-229.8" font-family="Times,serif" font-size="14.00">IconComponent </text>
</g>
<!-- FormModule&#45;&gt;IconComponent  -->
<g id="edge22" class="edge">
<title>FormModule&#45;&gt;IconComponent </title>
<path fill="none" stroke="black" stroke-dasharray="5,2" d="M1232,-187.11C1232,-187.11 1232,-205.99 1232,-205.99"/>
<polygon fill="black" stroke="black" points="1228.5,-205.99 1232,-215.99 1235.5,-205.99 1228.5,-205.99"/>
</g>
<!-- InputComponent  -->
<g id="node24" class="node">
<title>InputComponent </title>
<polygon fill="#fb8072" stroke="black" points="1159.38,-252 1044.62,-252 1044.62,-216 1159.38,-216 1159.38,-252"/>
<text text-anchor="middle" x="1102" y="-229.8" font-family="Times,serif" font-size="14.00">InputComponent </text>
</g>
<!-- FormModule&#45;&gt;InputComponent  -->
<g id="edge23" class="edge">
<title>FormModule&#45;&gt;InputComponent </title>
<path fill="none" stroke="black" stroke-dasharray="5,2" d="M1187,-185C1156.07,-185 1120.57,-185 1120.57,-185 1120.57,-185 1120.57,-205.75 1120.57,-205.75"/>
<polygon fill="black" stroke="black" points="1117.07,-205.75 1120.57,-215.75 1124.07,-205.75 1117.07,-205.75"/>
</g>
<!-- RadioButtonComponent  -->
<g id="node25" class="node">
<title>RadioButtonComponent </title>
<polygon fill="#fb8072" stroke="black" points="1027.39,-252 870.61,-252 870.61,-216 1027.39,-216 1027.39,-252"/>
<text text-anchor="middle" x="949" y="-229.8" font-family="Times,serif" font-size="14.00">RadioButtonComponent </text>
</g>
<!-- FormModule&#45;&gt;RadioButtonComponent  -->
<g id="edge24" class="edge">
<title>FormModule&#45;&gt;RadioButtonComponent </title>
<path fill="none" stroke="black" stroke-dasharray="5,2" d="M1187.06,-182C1123.87,-182 1016.38,-182 1016.38,-182 1016.38,-182 1016.38,-205.81 1016.38,-205.81"/>
<polygon fill="black" stroke="black" points="1012.88,-205.81 1016.38,-215.81 1019.88,-205.81 1012.88,-205.81"/>
</g>
<!-- RadioButtonGroupComponent  -->
<g id="node26" class="node">
<title>RadioButtonGroupComponent </title>
<polygon fill="#fb8072" stroke="black" points="853.16,-252 660.84,-252 660.84,-216 853.16,-216 853.16,-252"/>
<text text-anchor="middle" x="757" y="-229.8" font-family="Times,serif" font-size="14.00">RadioButtonGroupComponent </text>
</g>
<!-- FormModule&#45;&gt;RadioButtonGroupComponent  -->
<g id="edge25" class="edge">
<title>FormModule&#45;&gt;RadioButtonGroupComponent </title>
<path fill="none" stroke="black" stroke-dasharray="5,2" d="M1186.99,-180C1081.25,-180 825.88,-180 825.88,-180 825.88,-180 825.88,-205.72 825.88,-205.72"/>
<polygon fill="black" stroke="black" points="822.38,-205.72 825.88,-215.72 829.38,-205.72 822.38,-205.72"/>
</g>
<!-- SelectButtonComponent  -->
<g id="node27" class="node">
<title>SelectButtonComponent </title>
<polygon fill="#fb8072" stroke="black" points="642.66,-252 485.34,-252 485.34,-216 642.66,-216 642.66,-252"/>
<text text-anchor="middle" x="564" y="-229.8" font-family="Times,serif" font-size="14.00">SelectButtonComponent </text>
</g>
<!-- FormModule&#45;&gt;SelectButtonComponent  -->
<g id="edge26" class="edge">
<title>FormModule&#45;&gt;SelectButtonComponent </title>
<path fill="none" stroke="black" stroke-dasharray="5,2" d="M1186.63,-177C1047.28,-177 634.88,-177 634.88,-177 634.88,-177 634.88,-205.96 634.88,-205.96"/>
<polygon fill="black" stroke="black" points="631.38,-205.96 634.88,-215.96 638.38,-205.96 631.38,-205.96"/>
</g>
<!-- SliderComponent  -->
<g id="node28" class="node">
<title>SliderComponent </title>
<polygon fill="#fb8072" stroke="black" points="467.27,-252 348.73,-252 348.73,-216 467.27,-216 467.27,-252"/>
<text text-anchor="middle" x="408" y="-229.8" font-family="Times,serif" font-size="14.00">SliderComponent </text>
</g>
<!-- FormModule&#45;&gt;SliderComponent  -->
<g id="edge27" class="edge">
<title>FormModule&#45;&gt;SliderComponent </title>
<path fill="none" stroke="black" stroke-dasharray="5,2" d="M1186.92,-175C1021.29,-175 455.94,-175 455.94,-175 455.94,-175 455.94,-205.98 455.94,-205.98"/>
<polygon fill="black" stroke="black" points="452.44,-205.98 455.94,-215.98 459.44,-205.98 452.44,-205.98"/>
</g>
<!-- ToggleSwitchComponent  -->
<g id="node29" class="node">
<title>ToggleSwitchComponent </title>
<polygon fill="#fb8072" stroke="black" points="330.88,-252 167.12,-252 167.12,-216 330.88,-216 330.88,-252"/>
<text text-anchor="middle" x="249" y="-229.8" font-family="Times,serif" font-size="14.00">ToggleSwitchComponent </text>
</g>
<!-- FormModule&#45;&gt;ToggleSwitchComponent  -->
<g id="edge28" class="edge">
<title>FormModule&#45;&gt;ToggleSwitchComponent </title>
<path fill="none" stroke="black" stroke-dasharray="5,2" d="M1186.83,-172C1003.04,-172 321.15,-172 321.15,-172 321.15,-172 321.15,-205.73 321.15,-205.73"/>
<polygon fill="black" stroke="black" points="317.65,-205.73 321.15,-215.73 324.65,-205.73 317.65,-205.73"/>
</g>
<!-- BaseModule -->
<g id="node16" class="node">
<title>BaseModule</title>
<polygon fill="#8dd3c7" stroke="black" points="110.26,-122 107.26,-126 86.26,-126 83.26,-122 23.74,-122 23.74,-86 110.26,-86 110.26,-122"/>
<text text-anchor="middle" x="67" y="-99.8" font-family="Times,serif" font-size="14.00">BaseModule</text>
</g>
<!-- BaseModule&#45;&gt;FormModule -->
<g id="edge15" class="edge">
<title>BaseModule&#45;&gt;FormModule</title>
<path fill="none" stroke="black" d="M67,-122.11C67,-141.34 67,-169 67,-169 67,-169 1177.04,-169 1177.04,-169"/>
<polygon fill="black" stroke="black" points="1177.04,-172.5 1187.04,-169 1177.04,-165.5 1177.04,-172.5"/>
</g>
</g>
</svg>
