<?xml version="1.0" encoding="UTF-8" standalone="no"?>
<!DOCTYPE svg PUBLIC "-//W3C//DTD SVG 1.1//EN"
 "http://www.w3.org/Graphics/SVG/1.1/DTD/svg11.dtd">
<!-- Generated by graphviz version 2.47.0 (20210316.0004)
 -->
<!-- Title: dependencies Pages: 1 -->
<svg width="949pt" height="284pt"
 viewBox="0.00 0.00 949.00 284.00" xmlns="http://www.w3.org/2000/svg" xmlns:xlink="http://www.w3.org/1999/xlink">
<g id="graph0" class="graph" transform="scale(1 1) rotate(0) translate(4 280)">
<title>dependencies</title>
<polygon fill="white" stroke="transparent" points="-4,4 -4,-280 945,-280 945,4 -4,4"/>
<text text-anchor="start" x="449.51" y="-42.4" font-family="sans-serif" font-weight="bold" font-size="14.00">Legend</text>
<polygon fill="#ffffb3" stroke="transparent" points="236.5,-10 236.5,-30 256.5,-30 256.5,-10 236.5,-10"/>
<text text-anchor="start" x="260.13" y="-15.4" font-family="sans-serif" font-size="14.00"> &#160;Declarations</text>
<polygon fill="#8dd3c7" stroke="transparent" points="349.5,-10 349.5,-30 369.5,-30 369.5,-10 349.5,-10"/>
<text text-anchor="start" x="373.23" y="-15.4" font-family="sans-serif" font-size="14.00"> &#160;Module</text>
<polygon fill="#80b1d3" stroke="transparent" points="435.5,-10 435.5,-30 455.5,-30 455.5,-10 435.5,-10"/>
<text text-anchor="start" x="459.28" y="-15.4" font-family="sans-serif" font-size="14.00"> &#160;Bootstrap</text>
<polygon fill="#fdb462" stroke="transparent" points="532.5,-10 532.5,-30 552.5,-30 552.5,-10 532.5,-10"/>
<text text-anchor="start" x="556.17" y="-15.4" font-family="sans-serif" font-size="14.00"> &#160;Providers</text>
<polygon fill="#fb8072" stroke="transparent" points="628.5,-10 628.5,-30 648.5,-30 648.5,-10 628.5,-10"/>
<text text-anchor="start" x="652.23" y="-15.4" font-family="sans-serif" font-size="14.00"> &#160;Exports</text>
<g id="clust1" class="cluster">
<title>cluster_SbElementModule</title>
<polygon fill="none" stroke="black" stroke-dasharray="1,5" points="8,-70 8,-268 933,-268 933,-70 8,-70"/>
</g>
<g id="clust9" class="cluster">
<title>cluster_SbElementModule_exports</title>
<polygon fill="none" stroke="black" points="62,-208 62,-260 880,-260 880,-208 62,-208"/>
</g>
<g id="clust2" class="cluster">
<title>cluster_SbElementModule_declarations</title>
<polygon fill="none" stroke="black" points="234,-78 234,-130 925,-130 925,-78 234,-78"/>
</g>
<g id="clust8" class="cluster">
<title>cluster_SbElementModule_imports</title>
<polygon fill="none" stroke="black" points="16,-78 16,-130 226,-130 226,-78 16,-78"/>
</g>
<!-- AlertBoxComponent -->
<g id="node1" class="node">
<title>AlertBoxComponent</title>
<polygon fill="#ffffb3" stroke="black" points="916.93,-122 783.07,-122 783.07,-86 916.93,-86 916.93,-122"/>
<text text-anchor="middle" x="850" y="-99.8" font-family="Times,serif" font-size="14.00">AlertBoxComponent</text>
</g>
<!-- SbElementModule -->
<g id="node6" class="node">
<title>SbElementModule</title>
<polygon fill="#8dd3c7" stroke="black" points="502.49,-187 499.49,-191 478.49,-191 475.49,-187 381.51,-187 381.51,-151 502.49,-151 502.49,-187"/>
<text text-anchor="middle" x="442" y="-164.8" font-family="Times,serif" font-size="14.00">SbElementModule</text>
</g>
<!-- AlertBoxComponent&#45;&gt;SbElementModule -->
<g id="edge1" class="edge">
<title>AlertBoxComponent&#45;&gt;SbElementModule</title>
<path fill="none" stroke="black" d="M827.88,-122.11C827.88,-141.34 827.88,-169 827.88,-169 827.88,-169 512.72,-169 512.72,-169"/>
<polygon fill="black" stroke="black" points="512.72,-165.5 502.72,-169 512.72,-172.5 512.72,-165.5"/>
</g>
<!-- AlertComponent -->
<g id="node2" class="node">
<title>AlertComponent</title>
<polygon fill="#ffffb3" stroke="black" points="765.1,-122 654.9,-122 654.9,-86 765.1,-86 765.1,-122"/>
<text text-anchor="middle" x="710" y="-99.8" font-family="Times,serif" font-size="14.00">AlertComponent</text>
</g>
<!-- AlertComponent&#45;&gt;SbElementModule -->
<g id="edge2" class="edge">
<title>AlertComponent&#45;&gt;SbElementModule</title>
<path fill="none" stroke="black" d="M686.38,-122.02C686.38,-139.37 686.38,-163 686.38,-163 686.38,-163 512.72,-163 512.72,-163"/>
<polygon fill="black" stroke="black" points="512.72,-159.5 502.72,-163 512.72,-166.5 512.72,-159.5"/>
</g>
<!-- CardComponent -->
<g id="node3" class="node">
<title>CardComponent</title>
<polygon fill="#ffffb3" stroke="black" points="637.05,-122 528.95,-122 528.95,-86 637.05,-86 637.05,-122"/>
<text text-anchor="middle" x="583" y="-99.8" font-family="Times,serif" font-size="14.00">CardComponent</text>
</g>
<!-- CardComponent&#45;&gt;SbElementModule -->
<g id="edge3" class="edge">
<title>CardComponent&#45;&gt;SbElementModule</title>
<path fill="none" stroke="black" d="M557.38,-122.24C557.38,-137.57 557.38,-157 557.38,-157 557.38,-157 512.73,-157 512.73,-157"/>
<polygon fill="black" stroke="black" points="512.73,-153.5 502.73,-157 512.73,-160.5 512.73,-153.5"/>
</g>
<!-- ContainerComponent -->
<g id="node4" class="node">
<title>ContainerComponent</title>
<polygon fill="#ffffb3" stroke="black" points="510.04,-122 373.96,-122 373.96,-86 510.04,-86 510.04,-122"/>
<text text-anchor="middle" x="442" y="-99.8" font-family="Times,serif" font-size="14.00">ContainerComponent</text>
</g>
<!-- ContainerComponent&#45;&gt;SbElementModule -->
<g id="edge4" class="edge">
<title>ContainerComponent&#45;&gt;SbElementModule</title>
<path fill="none" stroke="black" d="M442,-122.11C442,-122.11 442,-140.99 442,-140.99"/>
<polygon fill="black" stroke="black" points="438.5,-140.99 442,-150.99 445.5,-140.99 438.5,-140.99"/>
</g>
<!-- TableComponent -->
<g id="node5" class="node">
<title>TableComponent</title>
<polygon fill="#ffffb3" stroke="black" points="355.7,-122 242.3,-122 242.3,-86 355.7,-86 355.7,-122"/>
<text text-anchor="middle" x="299" y="-99.8" font-family="Times,serif" font-size="14.00">TableComponent</text>
</g>
<!-- TableComponent&#45;&gt;SbElementModule -->
<g id="edge5" class="edge">
<title>TableComponent&#45;&gt;SbElementModule</title>
<path fill="none" stroke="black" d="M335.79,-122.24C335.79,-137.57 335.79,-157 335.79,-157 335.79,-157 371.45,-157 371.45,-157"/>
<polygon fill="black" stroke="black" points="371.45,-160.5 381.45,-157 371.45,-153.5 371.45,-160.5"/>
</g>
<!-- AlertBoxComponent  -->
<g id="node9" class="node">
<title>AlertBoxComponent </title>
<polygon fill="#fb8072" stroke="black" points="872.43,-252 735.57,-252 735.57,-216 872.43,-216 872.43,-252"/>
<text text-anchor="middle" x="804" y="-229.8" font-family="Times,serif" font-size="14.00">AlertBoxComponent </text>
</g>
<!-- SbElementModule&#45;&gt;AlertBoxComponent  -->
<g id="edge8" class="edge">
<title>SbElementModule&#45;&gt;AlertBoxComponent </title>
<path fill="none" stroke="black" stroke-dasharray="5,2" d="M502.54,-175C592.32,-175 750.29,-175 750.29,-175 750.29,-175 750.29,-205.98 750.29,-205.98"/>
<polygon fill="black" stroke="black" points="746.79,-205.98 750.29,-215.98 753.79,-205.98 746.79,-205.98"/>
</g>
<!-- AlertComponent  -->
<g id="node10" class="node">
<title>AlertComponent </title>
<polygon fill="#fb8072" stroke="black" points="717.6,-252 604.4,-252 604.4,-216 717.6,-216 717.6,-252"/>
<text text-anchor="middle" x="661" y="-229.8" font-family="Times,serif" font-size="14.00">AlertComponent </text>
</g>
<!-- SbElementModule&#45;&gt;AlertComponent  -->
<g id="edge9" class="edge">
<title>SbElementModule&#45;&gt;AlertComponent </title>
<path fill="none" stroke="black" stroke-dasharray="5,2" d="M502.51,-181C554.37,-181 620.74,-181 620.74,-181 620.74,-181 620.74,-205.76 620.74,-205.76"/>
<polygon fill="black" stroke="black" points="617.24,-205.76 620.74,-215.76 624.24,-205.76 617.24,-205.76"/>
</g>
<!-- CardComponent  -->
<g id="node11" class="node">
<title>CardComponent </title>
<polygon fill="#fb8072" stroke="black" points="586.04,-252 473.96,-252 473.96,-216 586.04,-216 586.04,-252"/>
<text text-anchor="middle" x="530" y="-229.8" font-family="Times,serif" font-size="14.00">CardComponent </text>
</g>
<!-- SbElementModule&#45;&gt;CardComponent  -->
<g id="edge10" class="edge">
<title>SbElementModule&#45;&gt;CardComponent </title>
<path fill="none" stroke="black" stroke-dasharray="5,2" d="M488.24,-187.11C488.24,-187.11 488.24,-205.99 488.24,-205.99"/>
<polygon fill="black" stroke="black" points="484.74,-205.99 488.24,-215.99 491.74,-205.99 484.74,-205.99"/>
</g>
<!-- ContainerComponent  -->
<g id="node12" class="node">
<title>ContainerComponent </title>
<polygon fill="#fb8072" stroke="black" points="456.04,-252 315.96,-252 315.96,-216 456.04,-216 456.04,-252"/>
<text text-anchor="middle" x="386" y="-229.8" font-family="Times,serif" font-size="14.00">ContainerComponent </text>
</g>
<!-- SbElementModule&#45;&gt;ContainerComponent  -->
<g id="edge11" class="edge">
<title>SbElementModule&#45;&gt;ContainerComponent </title>
<path fill="none" stroke="black" stroke-dasharray="5,2" d="M418.76,-187.11C418.76,-187.11 418.76,-205.99 418.76,-205.99"/>
<polygon fill="black" stroke="black" points="415.26,-205.99 418.76,-215.99 422.26,-205.99 415.26,-205.99"/>
</g>
<!-- FormModule  -->
<g id="node13" class="node">
<title>FormModule </title>
<polygon fill="#fb8072" stroke="black" points="297.88,-252 204.12,-252 204.12,-216 297.88,-216 297.88,-252"/>
<text text-anchor="middle" x="251" y="-229.8" font-family="Times,serif" font-size="14.00">FormModule </text>
</g>
<!-- SbElementModule&#45;&gt;FormModule  -->
<g id="edge12" class="edge">
<title>SbElementModule&#45;&gt;FormModule </title>
<path fill="none" stroke="black" stroke-dasharray="5,2" d="M381.37,-181C331.87,-181 270.04,-181 270.04,-181 270.04,-181 270.04,-205.76 270.04,-205.76"/>
<polygon fill="black" stroke="black" points="266.54,-205.76 270.04,-215.76 273.54,-205.76 266.54,-205.76"/>
</g>
<!-- TableComponent  -->
<g id="node14" class="node">
<title>TableComponent </title>
<polygon fill="#fb8072" stroke="black" points="186.21,-252 69.79,-252 69.79,-216 186.21,-216 186.21,-252"/>
<text text-anchor="middle" x="128" y="-229.8" font-family="Times,serif" font-size="14.00">TableComponent </text>
</g>
<!-- SbElementModule&#45;&gt;TableComponent  -->
<g id="edge13" class="edge">
<title>SbElementModule&#45;&gt;TableComponent </title>
<path fill="none" stroke="black" stroke-dasharray="5,2" d="M381.29,-175C298.13,-175 158.99,-175 158.99,-175 158.99,-175 158.99,-205.98 158.99,-205.98"/>
<polygon fill="black" stroke="black" points="155.49,-205.98 158.99,-215.98 162.49,-205.98 155.49,-205.98"/>
</g>
<!-- BaseModule -->
<g id="node7" class="node">
<title>BaseModule</title>
<polygon fill="#8dd3c7" stroke="black" points="218.26,-122 215.26,-126 194.26,-126 191.26,-122 131.74,-122 131.74,-86 218.26,-86 218.26,-122"/>
<text text-anchor="middle" x="175" y="-99.8" font-family="Times,serif" font-size="14.00">BaseModule</text>
</g>
<!-- BaseModule&#45;&gt;SbElementModule -->
<g id="edge6" class="edge">
<title>BaseModule&#45;&gt;SbElementModule</title>
<path fill="none" stroke="black" d="M211.34,-122.02C211.34,-139.37 211.34,-163 211.34,-163 211.34,-163 371.4,-163 371.4,-163"/>
<polygon fill="black" stroke="black" points="371.4,-166.5 381.4,-163 371.4,-159.5 371.4,-166.5"/>
</g>
<!-- FormModule -->
<g id="node8" class="node">
<title>FormModule</title>
<polygon fill="#8dd3c7" stroke="black" points="113.88,-122 110.88,-126 89.88,-126 86.88,-122 24.12,-122 24.12,-86 113.88,-86 113.88,-122"/>
<text text-anchor="middle" x="69" y="-99.8" font-family="Times,serif" font-size="14.00">FormModule</text>
</g>
<!-- FormModule&#45;&gt;SbElementModule -->
<g id="edge7" class="edge">
<title>FormModule&#45;&gt;SbElementModule</title>
<path fill="none" stroke="black" d="M91.79,-122.11C91.79,-141.34 91.79,-169 91.79,-169 91.79,-169 371.4,-169 371.4,-169"/>
<polygon fill="black" stroke="black" points="371.4,-172.5 381.4,-169 371.4,-165.5 371.4,-172.5"/>
</g>
</g>
</svg>
